P2
30 25
65535
0  0  0  0  0  0  65000 65000 65000 65000 65000 65000 65000 65000 65000 65000 65000 65000 65000 0  0  0  0  65000 65000 65000 0  0  0  0  
0  0  0  0  0  0  65000 65000 65000 65000 65000 65000 65000 65000 65000 65000 65000 65000 65000 0  0  0  0  65000 65000 65000 0  0  0  0  
0  0  0  0  0  0  65000 65000 65000 65000 65000 65000 65000 65000 65000 65000 65000 65000 65000 0  0  0  0  65000 65000 65000 0  0  0  0  
0  0  0  0  0  0  65000 65000 65000 65000 65000 65000 65000 65000 65000 65000 65000 65000 65000 0  0  0  0  65000 65000 65000 0  0  0  0  
0  0  0  65000 0  0  65000 65000 65000 65000 65000 65000 65000 65000 65000 65000 65000 65000 65000 0  0  0  0  65000 65000 65000 0  0  0  0  
0  0  65000 65000 65000 65000 65000 65000 65000 65000 65000 65000 65000 65000 65000 65000 65000 65000 65000 0  0  0  0  65000 65000 65000 0  0  0  0  
0  0  0  65000 0  0  65000 65000 65000 65000 65000 65000 65000 65000 65000 65000 65000 65000 65000 0  0  0  0  65000 65000 65000 0  0  0  0  
0  0  0  0  0  0  65000 65000 65000 65000 65000 65000 65000 65000 65000 65000 65000 65000 65000 0  0  0  0  65000 65000 65000 0  0  0  0  
0  0  0  0  0  0  65000 65000 65000 65000 65000 65000 65000 65000 65000 65000 65000 65000 65000 0  0  0  0  65000 65000 65000 0  0  0  0  
0  0  0  0  0  0  65000 65000 65000 65000 65000 65000 65000 65000 65000 65000 65000 65000 65000 0  0  0  0  65000 65000 65000 0  0  0  0  
0  0  0  0  0  0  65000 65000 65000 65000 65000 65000 65000 65000 65000 65000 65000 65000 65000 0  0  0  0  65000 65000 65000 0  0  0  0  
0  0  65000 0  0  0  65000 65000 65000 65000 65000 65000 65000 65000 65000 65000 65000 65000 65000 0  0  0  0  65000 65000 65000 0  0  0  0  
0  65000 65000 65000 65000 65000 65000 65000 65000 65000 65000 65000 65000 65000 65000 65000 65000 65000 65000 0  0  0  0  65000 65000 65000 0  0  0  0  
0  0  65000 0  0  0  65000 65000 65000 65000 65000 65000 65000 65000 65000 65000 65000 65000 65000 0  0  0  0  65000 65000 65000 0  0  0  0  
0  0  0  0  0  0  65000 65000 65000 65000 65000 65000 65000 65000 65000 65000 65000 65000 65000 0  0  0  0  65000 65000 65000 0  0  0  0  
0  0  0  0  0  0  65000 65000 65000 65000 65000 65000 65000 65000 65000 65000 65000 65000 65000 0  0  0  0  65000 65000 65000 0  0  0  0  
0  0  0  0  0  0  0  0  0  0  0  65000 65000 65000 65000 65000 0  0  0  0  0  0  0  65000 65000 65000 0  0  0  0  
0  0  0  0  0  0  0  0  0  0  0  65000 65000 65000 65000 65000 0  0  0  0  0  0  0  65000 65000 65000 0  0  0  0  
0  0  0  0  0  0  0  0  0  0  0  65000 65000 65000 65000 65000 0  0  0  0  0  0  0  65000 65000 65000 0  0  0  0  
0  0  0  0  0  0  0  0  0  0  0  65000 65000 65000 65000 65000 0  0  0  0  0  0  0  65000 65000 65000 0  0  0  0  
0  0  0  0  0  0  0  0  0  0  0  65000 65000 65000 65000 65000 65000 65000 65000 65000 65000 65000 65000 65000 65000 65000 0  0  0  0  
0  0  0  0  0  0  0  0  0  0  0  65000 65000 65000 65000 65000 65000 65000 65000 65000 65000 65000 65000 65000 65000 65000 0  0  0  0  
0  0  0  0  0  0  0  0  0  0  0  65000 65000 65000 65000 65000 65000 65000 65000 65000 65000 65000 65000 65000 65000 65000 0  0  0  0  
0  0  0  0  0  0  0  0  0  0  0  65000 65000 65000 65000 65000 0  0  0  0  0  0  0  0  0  0  0  0  0  0  
0  0  0  0  0  0  0  0  0  0  0  65000 65000 65000 65000 65000 0  0  0  0  0  0  0  0  0  0  0  0  0  0  
